{
	"asset":{
		"generator":"Khronos glTF Blender I/O v3.5.30",
		"version":"2.0"
	},
	"scene":0,
	"scenes":[
		{
			"name":"Scene",
			"nodes":[
				0,
				1
			]
		}
	],
	"nodes":[
		{
			"mesh":0,
			"name":"page",
			"translation":[
				1.9609907865524292,
				0.29819023609161377,
				0.16756406426429749
			]
		},
		{
			"mesh":1,
			"name":"cover",
			"translation":[
				1.9673963785171509,
				0.29034674167633057,
				-0.4434059262275696
			]
		}
	],
	"materials":[
		{
			"doubleSided":true,
			"name":"page",
			"pbrMetallicRoughness":{
				"baseColorFactor":[
					0.800000011920929,
					0.800000011920929,
					0.800000011920929,
					1
				],
				"metallicFactor":0,
				"roughnessFactor":0.5
			}
		},
		{
			"doubleSided":true,
			"name":"cover",
			"pbrMetallicRoughness":{
				"baseColorFactor":[
					0.5583405494689941,
					0.06662576645612717,
					0.11443539708852768,
					1
				],
				"metallicFactor":0,
				"roughnessFactor":0.5
			}
		}
	],
	"meshes":[
		{
			"name":"Cube",
			"primitives":[
				{
					"attributes":{
						"POSITION":0,
						"TEXCOORD_0":1,
						"NORMAL":2
					},
					"indices":3,
					"material":0
				}
			]
		},
		{
			"name":"Cube.002",
			"primitives":[
				{
					"attributes":{
						"POSITION":4,
						"TEXCOORD_0":5,
						"NORMAL":6
					},
					"indices":7,
					"material":1
				}
			]
		}
	],
	"accessors":[
		{
			"bufferView":0,
			"componentType":5126,
			"count":24,
			"max":[
				0.08070570230484009,
				0.48094284534454346,
				-0.7249156832695007
			],
			"min":[
				-1,
				-1,
				-1
			],
			"type":"VEC3"
		},
		{
			"bufferView":1,
			"componentType":5126,
			"count":24,
			"type":"VEC2"
		},
		{
			"bufferView":2,
			"componentType":5126,
			"count":24,
			"type":"VEC3"
		},
		{
			"bufferView":3,
			"componentType":5123,
			"count":36,
			"type":"SCALAR"
		},
		{
			"bufferView":4,
			"componentType":5126,
			"count":72,
			"max":[
				0.11377008259296417,
				0.5225363969802856,
				-0.09116154909133911
			],
			"min":[
				-1.0342988967895508,
				-1.0278047323226929,
				-0.4131881892681122
			],
			"type":"VEC3"
		},
		{
			"bufferView":5,
			"componentType":5126,
			"count":72,
			"type":"VEC2"
		},
		{
			"bufferView":6,
			"componentType":5126,
			"count":72,
			"type":"VEC3"
		},
		{
			"bufferView":7,
			"componentType":5123,
			"count":108,
			"type":"SCALAR"
		}
	],
	"bufferViews":[
		{
			"buffer":0,
			"byteLength":288,
			"byteOffset":0,
			"target":34962
		},
		{
			"buffer":0,
			"byteLength":192,
			"byteOffset":288,
			"target":34962
		},
		{
			"buffer":0,
			"byteLength":288,
			"byteOffset":480,
			"target":34962
		},
		{
			"buffer":0,
			"byteLength":72,
			"byteOffset":768,
			"target":34963
		},
		{
			"buffer":0,
			"byteLength":864,
			"byteOffset":840,
			"target":34962
		},
		{
			"buffer":0,
			"byteLength":576,
			"byteOffset":1704,
			"target":34962
		},
		{
			"buffer":0,
			"byteLength":864,
			"byteOffset":2280,
			"target":34962
		},
		{
			"buffer":0,
			"byteLength":216,
			"byteOffset":3144,
			"target":34963
		}
	],
	"buffers":[
		{
			"byteLength":3360,
			"uri":"data:application/octet-stream;base64,"
		}
	]
}
